<svg width="32" height="32" viewBox="0 0 32 32" fill="none" xmlns="http://www.w3.org/2000/svg">
<g id="Frame" clip-path="url(#clip0_217_868)">
<g id="Group">
<path id="Vector" d="M22.7082 30.5C22.7082 30.8978 22.5502 31.2794 22.2689 31.5607C21.9876 31.842 21.606 32 21.2082 32H7.06738C5.74176 31.9985 4.47085 31.4712 3.53349 30.5339C2.59613 29.5965 2.06887 28.3256 2.06738 27V5C2.06887 3.67437 2.59613 2.40347 3.53349 1.46611C4.47085 0.528751 5.74176 0.00148882 7.06738 0L21.2082 0C21.606 0 21.9876 0.158035 22.2689 0.43934C22.5502 0.720644 22.7082 1.10218 22.7082 1.5C22.7082 1.89782 22.5502 2.27936 22.2689 2.56066C21.9876 2.84196 21.606 3 21.2082 3H7.06738C6.53713 3.00058 6.02876 3.21148 5.65381 3.58643C5.27886 3.96137 5.06796 4.46974 5.06738 5V27C5.06795 27.5303 5.27884 28.0386 5.65379 28.4136C6.02874 28.7885 6.53712 28.9994 7.06738 29H21.2082C21.606 29 21.9876 29.158 22.2689 29.4393C22.5502 29.7206 22.7082 30.1022 22.7082 30.5ZM29.4928 14.9394L22.3646 7.81112C22.2259 7.66929 22.0604 7.55637 21.8777 7.47893C21.6951 7.40148 21.4989 7.36103 21.3005 7.35994C21.1021 7.35884 20.9054 7.39711 20.7219 7.47253C20.5384 7.54795 20.3717 7.65902 20.2314 7.79931C20.0912 7.93961 19.9801 8.10634 19.9047 8.28985C19.8293 8.47336 19.7911 8.67 19.7922 8.86839C19.7933 9.06679 19.8338 9.26299 19.9112 9.44563C19.9887 9.62827 20.1017 9.79374 20.2435 9.93244L24.8108 14.5H13.0023C12.6045 14.5 12.223 14.658 11.9417 14.9393C11.6604 15.2206 11.5023 15.6022 11.5023 16C11.5023 16.3978 11.6604 16.7794 11.9417 17.0607C12.223 17.342 12.6045 17.5 13.0023 17.5H24.8108L20.2433 22.0675C20.1033 22.2066 19.9923 22.372 19.9164 22.5542C19.8405 22.7363 19.8013 22.9317 19.801 23.129C19.8008 23.3263 19.8394 23.5218 19.9148 23.7041C19.9902 23.8865 20.1008 24.0522 20.2404 24.1917C20.3799 24.3312 20.5456 24.4419 20.7279 24.5173C20.9103 24.5926 21.1057 24.6313 21.3031 24.631C21.5004 24.6308 21.6957 24.5916 21.8779 24.5157C22.06 24.4398 22.2254 24.3287 22.3646 24.1888L29.4928 17.0607C29.7741 16.7794 29.9321 16.3979 29.9321 16C29.9321 15.6022 29.7741 15.2207 29.4928 14.9394Z" fill="#99A1AB"/>
</g>
</g>
<defs>
<clipPath id="clip0_217_868">
<rect width="32" height="32" fill="white"/>
</clipPath>
</defs>
</svg>
